<?xml version="1.0" encoding="utf-8" ?>
<svg baseProfile="full" height="3508" version="1.1" width="2481" xmlns="http://www.w3.org/2000/svg" xmlns:ev="http://www.w3.org/2001/xml-events" xmlns:xlink="http://www.w3.org/1999/xlink"><defs /><rect fill="transparent" height="3508" width="2481" x="0" y="0" /><path d="M 945,1801 L 707,1801 L 704,1803 L 703,2154 L 770,2114 L 780,2105 L 783,2099 L 785,1913 L 849,1965 L 866,1975 L 874,1975 L 945,1933 L 932,1920 L 821,1828 L 945,1827 Z" fill="#E12454" stroke="none" /><path d="M 399,1801 L 400,1925 L 408,1935 L 473,1973 L 480,1972 L 483,1967 L 483,1827 L 561,1827 L 562,2097 L 564,2103 L 572,2112 L 642,2154 L 642,1804 L 639,1801 Z" fill="#E12454" stroke="none" /><path d="M 256,1730 L 256,1731 L 275,1751 L 275,1752 L 281,1758 L 281,1759 L 286,1764 L 286,1765 L 293,1773 L 292,1774 L 292,1775 L 288,1779 L 288,1780 L 284,1784 L 284,1785 L 277,1792 L 277,1793 L 263,1807 L 263,1808 L 255,1816 L 333,1816 L 334,1815 L 336,1815 L 337,1814 L 342,1812 L 349,1805 L 349,1804 L 352,1801 L 352,1800 L 353,1799 L 353,1798 L 357,1791 L 357,1789 L 358,1788 L 358,1786 L 359,1785 L 359,1781 L 360,1780 L 360,1767 L 359,1766 L 359,1762 L 358,1761 L 358,1759 L 357,1758 L 357,1757 L 356,1756 L 356,1755 L 355,1754 L 353,1749 L 351,1747 L 351,1746 L 346,1741 L 346,1740 L 345,1740 L 341,1736 L 340,1736 L 338,1734 L 337,1734 L 334,1732 L 332,1732 L 331,1731 L 328,1731 L 327,1730 Z" fill="black" stroke="none" /><path d="M 1003,1708 L 1003,1709 L 986,1726 L 986,1727 L 984,1730 L 984,1737 L 985,1738 L 985,1740 L 988,1743 L 988,1744 L 989,1744 L 1018,1773 L 1018,1774 L 1010,1782 L 1009,1782 L 993,1798 L 992,1798 L 986,1804 L 986,1805 L 984,1808 L 984,1815 L 985,1816 L 986,1819 L 991,1824 L 991,1825 L 1001,1835 L 1001,1836 L 1003,1838 L 1004,1838 L 1005,1839 L 1007,1839 L 1010,1836 L 1011,1836 L 1027,1820 L 1028,1820 L 1052,1796 L 1053,1796 L 1070,1779 L 1071,1779 L 1076,1774 L 1076,1773 L 1059,1756 L 1058,1756 L 1038,1736 L 1037,1736 L 1019,1718 L 1018,1718 L 1008,1708 Z" fill="black" stroke="none" /><path d="M 2018,1659 L 2019,1666 L 2054,1671 L 2056,1718 L 2054,1880 L 2045,1883 L 2019,1885 L 2018,1892 L 2134,1892 L 2133,1885 L 2104,1882 L 2095,1878 L 2093,1785 L 2115,1768 L 2184,1837 L 2236,1884 L 2261,1901 L 2273,1897 L 2222,1838 L 2148,1743 L 2168,1723 L 2224,1678 L 2238,1669 L 2258,1666 L 2261,1659 L 2174,1659 L 2176,1666 L 2197,1669 L 2198,1673 L 2163,1708 L 2094,1768 L 2095,1671 L 2129,1666 L 2130,1659 Z" fill="white" stroke="none" /><path d="M 1749,1659 L 1750,1666 L 1771,1669 L 1779,1676 L 1816,1726 L 1855,1787 L 1856,1825 L 1854,1880 L 1845,1883 L 1825,1885 L 1823,1892 L 1928,1892 L 1927,1885 L 1899,1882 L 1895,1880 L 1893,1846 L 1894,1785 L 1904,1766 L 1926,1733 L 1962,1684 L 1975,1670 L 1997,1666 L 1998,1659 L 1916,1659 L 1918,1666 L 1940,1669 L 1943,1673 L 1927,1704 L 1886,1769 L 1823,1671 L 1826,1669 L 1851,1666 L 1853,1659 Z" fill="white" stroke="none" /><path d="M 1593,1659 L 1593,1666 L 1613,1668 L 1619,1671 L 1562,1821 L 1537,1880 L 1528,1883 L 1508,1885 L 1507,1892 L 1596,1892 L 1594,1885 L 1579,1884 L 1566,1880 L 1570,1857 L 1588,1791 L 1590,1788 L 1648,1784 L 1666,1785 L 1700,1879 L 1697,1882 L 1667,1885 L 1665,1892 L 1776,1892 L 1775,1885 L 1746,1880 L 1723,1829 L 1688,1735 L 1667,1670 L 1691,1666 L 1693,1659 Z" fill="white" stroke="none" /><path d="M 1195,1659 L 1197,1666 L 1231,1671 L 1233,1718 L 1231,1880 L 1197,1885 L 1195,1892 L 1307,1892 L 1305,1885 L 1273,1880 L 1271,1781 L 1408,1773 L 1407,1880 L 1374,1885 L 1372,1892 L 1484,1892 L 1482,1885 L 1449,1880 L 1446,1818 L 1448,1671 L 1482,1666 L 1484,1659 L 1372,1659 L 1374,1666 L 1407,1671 L 1409,1761 L 1390,1763 L 1271,1763 L 1273,1671 L 1305,1666 L 1307,1659 Z" fill="white" stroke="none" /><path d="M 703,1387 L 703,1737 L 706,1740 L 945,1740 L 945,1714 L 821,1713 L 932,1621 L 945,1608 L 874,1566 L 866,1566 L 849,1576 L 785,1628 L 783,1442 L 780,1436 L 770,1427 Z" fill="#E12454" stroke="none" /><path d="M 643,1387 L 572,1428 L 566,1434 L 561,1444 L 561,1713 L 481,1713 L 480,1563 L 407,1606 L 400,1614 L 399,1740 L 639,1740 L 642,1738 Z" fill="#E12454" stroke="none" /></svg>